<svg width="120" height="100" viewBox="0 0 120 100" fill="none" xmlns="http://www.w3.org/2000/svg">
    <g id="triangle" clip-path="url(#clip0_102_4)">
        <g id="darkGroup">
            <path id="dark 2" d="M60.1544 46.8646C62.2433 48.0007 62.2433 50.9993 60.1544 52.1354L17.6834 75.2346C15.6843 76.3218 13.25 74.8748 13.25 72.5992L13.25 26.4008C13.25 24.1253 15.6843 22.6782 17.6834 23.7654L60.1544 46.8646Z" fill="#EEBCBC" fill-opacity="0.74"/>
            <path id="dark 1" d="M80.1544 46.8646C82.2433 48.0007 82.2433 50.9993 80.1544 52.1354L37.6834 75.2346C35.6843 76.3218 33.25 74.8748 33.25 72.5992L33.25 26.4008C33.25 24.1253 35.6843 22.6782 37.6834 23.7654L80.1544 46.8646Z" fill="#EEBCBC" fill-opacity="0.71"/>
        </g>
        <g id="lightGroup">
            <path id="light 1" d="M60.1544 46.8646C62.2433 48.0007 62.2433 50.9993 60.1544 52.1354L17.6834 75.2346C15.6843 76.3218 13.25 74.8748 13.25 72.5992L13.25 26.4008C13.25 24.1253 15.6843 22.6782 17.6834 23.7654L60.1544 46.8646Z" fill="#EDD8B8" fill-opacity="0.56"/>
        </g>
    </g>
</svg>
